<svg width="24" height="20" viewBox="0 0 24 20" fill="none" xmlns="http://www.w3.org/2000/svg">
<path d="M19.2011 3.19995H9.97594L8.39333 0.405433C8.32354 0.282339 8.22235 0.179958 8.10008 0.108733C7.97781 0.0375081 7.83884 -1.18901e-05 7.69734 2.82643e-09H0.801452C0.589282 2.82643e-09 0.385802 0.0842842 0.235775 0.234311C0.0857489 0.384337 0.00146484 0.587817 0.00146484 0.799987V18.3997C0.00153375 18.5865 0.0669448 18.7674 0.186368 18.9111C0.305792 19.0548 0.471706 19.1522 0.655374 19.1864C0.703727 19.195 0.752735 19.1995 0.801852 19.1997C0.963481 19.1997 1.12132 19.1507 1.25457 19.0592C1.38781 18.9677 1.49023 18.838 1.54832 18.6872L5.35098 8.79985H19.2011C19.4133 8.79985 19.6168 8.71557 19.7668 8.56554C19.9168 8.41552 20.0011 8.21204 20.0011 7.99987V3.99993C20.0011 3.78776 19.9168 3.58428 19.7668 3.43426C19.6168 3.28423 19.4133 3.19995 19.2011 3.19995Z" fill="#3D3C3B"/>
<path d="M23.8608 7.54609C23.7872 7.43912 23.6888 7.35165 23.5739 7.29122C23.4591 7.23078 23.3312 7.19921 23.2014 7.19922H4.80172C4.64005 7.19928 4.48219 7.24827 4.34889 7.33974C4.21558 7.43121 4.11308 7.56087 4.05485 7.71169L0.0549173 18.1115C0.0082348 18.2327 -0.00823121 18.3635 0.00694218 18.4925C0.0221156 18.6215 0.0684719 18.7449 0.142006 18.8519C0.215539 18.959 0.314038 19.0465 0.428992 19.107C0.543945 19.1675 0.671895 19.1991 0.801785 19.199H19.2015C19.3631 19.199 19.521 19.15 19.6543 19.0585C19.7876 18.967 19.8901 18.8374 19.9483 18.6865L23.9483 8.28672C23.9948 8.16542 24.0112 8.03463 23.9959 7.90561C23.9807 7.77658 23.9343 7.6532 23.8608 7.54609Z" fill="#605F5E"/>
</svg>
