<svg width="30" height="27" viewBox="0 0 30 27" fill="none" xmlns="http://www.w3.org/2000/svg">
<path d="M1.0006 24.1651C1.00028 17.5138 0.999423 11.8638 1.0006 3.98166C1.00081 2.60552 1.26536 0.999992 2.50249 1.00001H11.0847C11.9754 1.00002 12.6829 1.6618 12.8011 2.60551H24.9235C25.6055 2.60551 26.1035 3.25261 26.1035 3.98166V7.42202H27.069C29 7.42202 29 7.91847 29 8.91285V24.1651C29 25.2437 28.078 26 27.069 26H2.50249C1.6118 26 1.00065 25.1173 1.0006 24.1651Z" fill="#EDBD13"/>
<path d="M12.8011 2.60551C13.0885 4.89908 13.6044 4.68614 14.303 5.9312C14.9465 7.07798 15.0045 7.42202 15.8049 7.42202C21.5977 7.42202 26.1035 7.42202 26.1035 7.42202M12.8011 2.60551C12.6829 1.6618 11.9754 1.00002 11.0847 1.00001C7.86651 0.999976 6.25713 1.00006 2.50249 1.00001C1.26536 0.999992 1.00081 2.60552 1.0006 3.98166C0.999423 11.8638 1.00028 17.5138 1.0006 24.1651C1.00065 25.1173 1.6118 26 2.50249 26C11.0847 26 15.8049 26 27.069 26C28.078 26 29 25.2437 29 24.1651C29 18.8899 29 14.7615 29 8.91285C29 7.91847 29 7.42202 27.069 7.42202C26.692 7.42202 26.1035 7.42202 26.1035 7.42202M12.8011 2.60551C15.8049 2.6055 18.8085 2.60551 24.9235 2.60551C25.6055 2.60551 26.1035 3.25261 26.1035 3.98166C26.1035 5.47248 26.1035 7.42202 26.1035 7.42202" stroke="#FEF4D3"/>
</svg>
