<svg width="30" height="33" viewBox="0 0 30 33" fill="none" xmlns="http://www.w3.org/2000/svg">
<path fill-rule="evenodd" clip-rule="evenodd" d="M15.0547 14.1297C18.8704 14.1297 21.9344 11.0078 21.9344 7.25C21.9344 3.49219 18.8704 0.3125 15.0547 0.3125C11.2969 0.3125 8.17505 3.43437 8.17505 7.19219C8.17505 10.95 11.2969 14.1297 15.0547 14.1297Z" fill="white"/>
<path fill-rule="evenodd" clip-rule="evenodd" d="M15.0547 32.6871H5.34221C3.66564 32.6871 2.22033 31.8777 1.35314 30.4902C0.485955 29.1027 0.37033 27.4262 1.12189 25.923C3.60783 20.7199 8.92658 17.1934 15.0547 17.1934C21.1828 17.1934 26.5016 20.7777 28.9875 25.923C29.7391 27.4262 29.6235 29.0449 28.7563 30.4902C27.8891 31.8777 26.4438 32.6871 24.7672 32.6871H15.0547Z" fill="white"/>
</svg>
