<svg width="148" height="97" viewBox="0 0 148 97" fill="none" xmlns="http://www.w3.org/2000/svg">
<path d="M7.44692 63.3078C10.6923 52.3081 11.625 48.4836 14.0853 38.7555C16.5455 29.0273 29.1234 27.1411 27.9149 38.7555C26.7064 50.3699 12.4256 71.2417 12.4256 81.5632C12.4256 91.8848 20.4175 85.6261 27.9149 83.1116C35.4123 80.5971 36.2119 79.9037 39.99 83.1116C43.768 86.3195 47.5186 94.8283 39.99 94.8283H7.44691C-5.27543 94.8283 4.20156 74.3076 7.44692 63.3078Z" fill="white" stroke="white"/>
<path d="M95.7869 87.5154C93.3186 78.642 91.659 39.6856 96.595 31.3051C101.531 22.9247 126.209 30.3192 128.183 31.3051C130.157 32.2911 131.639 39.1926 128.183 39.1926C124.728 39.1926 113.242 33.3328 107.947 39.1926C103.169 44.4807 102.038 53.4444 107.947 57.4323C111.94 60.1268 117.818 55.9534 120.286 57.4323C122.754 58.9112 121.949 62.7253 120.286 65.3197C117.689 69.3735 112.274 63.2013 107.947 65.3197C99.1203 69.6413 115.376 93.8043 107.104 93.8043C99.5616 93.8043 98.2552 96.3887 95.7869 87.5154Z" fill="white" stroke="white"/>
<path d="M146.79 32.2996C147.072 27.2494 136.025 26.634 135.744 31.6842C135.268 40.2204 134.631 51.716 134.108 61.0368C133.586 70.3576 132.773 85.0055 132.412 91.4941C132.13 96.5443 143.177 97.1597 143.458 92.1095L145.155 61.6522L146.79 32.2996Z" fill="white" stroke="white"/>
<path d="M48.6155 80.3224C47.9869 75.9202 49.8727 40.445 49.8728 36.2998C49.873 32.1547 56.1626 33.191 56.1626 36.2998C56.1626 37.9073 55.533 55.2139 55.533 63.6341V71.8249C55.533 76.2504 55.533 78.7275 58.6776 82.2092C61.8221 85.6908 73.7792 87.3907 75.8548 86.8725C77.9304 86.3543 78.8022 85.0165 78.9665 82.2092C79.1307 79.4019 80.7441 12.0088 80.2243 9.93623C79.7045 7.86369 77.1127 7.34552 77.1127 7.34552H71.9277C71.9277 7.34552 70.8905 7.34555 69.8533 9.93623C69.3743 11.1325 69.7335 22.654 69.8533 30.4867C69.9731 38.3193 70.6913 45.9595 69.8533 47.9117C68.2962 51.5387 64.855 49.9843 64.3376 47.9117C64.0147 46.6181 64.3376 35.1463 64.3376 27.157C64.3376 19.1677 63.6525 12.6071 64.3376 9.93623C66.1603 2.83028 67.8117 3.25399 69.3688 2.63153C70.9258 2.00907 78.7915 1.59504 82.4206 2.63142C86.0497 3.66779 86.3489 6.40352 86.3489 9.93623V40.7579V86.8725C86.3489 86.8725 85.3129 92.5721 81.1628 92.5721C77.0127 92.5721 61.1931 91.6425 55.533 89.1269C49.873 86.6114 49.2441 84.7247 48.6155 80.3224Z" fill="white" stroke="white" stroke-width="4"/>
</svg>
